Coordinates
version=1
nRows=11
nColumns=36
inDegrees=yes

Units are S.I. units (second, meters, Newtons, ...)
If the header above contains a line with 'inDegrees', this indicates whether rotational values are in degrees (yes) or radians (no).

endheader
time	pelvis_tilt	pelvis_list	pelvis_rotation	pelvis_tx	pelvis_ty	pelvis_tz	hip_flexion_r	hip_adduction_r	hip_rotation_r	knee_angle_r	knee_angle_r_beta	ankle_angle_r	subtalar_angle_r	mtp_angle_r	hip_flexion_l	hip_adduction_l	hip_rotation_l	knee_angle_l	knee_angle_l_beta	ankle_angle_l	subtalar_angle_l	mtp_angle_l	lumbar_extension	lumbar_bending	lumbar_rotation	arm_flex_r	arm_add_r	arm_rot_r	elbow_flex_r	pro_sup_r	arm_flex_l	arm_add_l	arm_rot_l	elbow_flex_l	pro_sup_l
      4.43333330	    -24.00360341	     -2.97982898	     -3.59036473	      0.76900195	      1.36935096	     -0.00253487	     50.82411524	     -6.95432684	    -10.58988355	     43.09227642	      0.75210211	    -22.30555317	      0.61020825	     -7.49999987	     50.35636879	     -9.67506276	      0.23213506	     48.63346602	      0.84881411	     -9.03649413	     -2.39358752	     -7.49999987	    -15.24480321	      0.02352750	      2.09969076	     31.49048280	     -5.07669096	     60.69721633	    123.01683440	    101.88492408	     43.37911850	     -1.85164605	     67.31016842	    109.68417771	    103.70079119
      4.45000000	    -23.93724603	     -2.48792113	     -3.09057440	      0.76816778	      1.35085154	     -0.00153664	     48.68748850	     -7.05866129	    -10.77037033	     37.59598878	      0.65617379	    -24.12580602	      1.52297755	     -7.49999987	     50.31172480	     -8.90240334	     -0.02232877	     47.03555720	      0.82092534	     -9.28868209	     -1.70784187	     -7.49999987	    -15.48090247	     -1.29419581	      2.72289695	     31.03540276	     -5.25510130	     59.11095678	    123.74133433	    100.68614686	     46.06612546	     -0.14923311	     68.85411182	    108.72548829	    101.84159585
      4.46666670	    -23.44231745	     -1.85618659	     -2.77075298	      0.77734704	      1.32885999	     -0.00323371	     45.34532723	     -7.25042440	    -11.36456940	     31.13402375	      0.54339122	    -24.96586149	      4.07294356	     -7.49999987	     47.35087828	     -8.68874527	     -0.94008253	     42.23408822	      0.73712390	    -14.13237589	     -2.00392728	     -7.49999987	    -15.33183336	     -2.59025562	      2.54787869	     31.11804706	     -4.89054114	     58.76476136	    123.53462209	    102.21405476	     46.59684426	      0.00160095	     69.11251610	    108.00102947	    103.33913893
      4.48333330	    -23.26277905	     -1.60768778	     -2.81479043	      0.77768524	      1.30905571	     -0.00199986	     42.82334073	     -7.18263278	    -12.04606069	     25.62148482	      0.44717927	    -26.34562337	      6.08627878	     -7.49999987	     45.28872669	     -8.87427583	     -1.23373799	     37.19500350	      0.64917528	    -19.13952361	     -2.86545957	     -7.49999987	    -15.50499552	     -3.41199411	      3.05550899	     31.56783546	     -5.34318212	     59.37181208	    124.00581641	    104.27875739	     46.70774045	      0.70510526	     70.13882537	    107.82590731	    105.41048935
      4.50000000	    -23.36868811	     -1.47581778	     -2.77661631	      0.77975075	      1.27486888	     -0.00223658	     41.89421721	     -7.19183310	    -11.71073188	     22.64246481	      0.39518556	    -26.83986910	      7.12454175	     -7.49999987	     44.73519189	     -8.84986753	     -0.84819997	     34.87801493	      0.60873620	    -20.10694392	     -2.49802046	     -7.49999987	    -15.14988856	     -4.01305542	      3.55514925	     32.12097977	     -5.29752260	     60.16628310	    124.95966857	    104.88094677	     46.61839412	      1.11564247	     70.82910029	    108.09758242	    105.91771564
      4.51666670	    -23.40582713	     -1.61213244	     -2.60519653	      0.77780918	      1.23236948	     -0.00187242	     41.95591171	     -7.19920624	    -11.85107229	     21.60459514	      0.37707132	    -27.06728687	      6.88515617	     -7.49999987	     44.94792081	     -9.19613534	     -0.41385538	     33.45421385	      0.58388618	    -20.55090028	     -2.48197344	     -7.49999987	    -14.21951912	     -4.03889171	      3.36597148	     33.25187723	     -4.85529948	     59.96470704	    126.24343592	    105.09021311	     47.61979390	      2.07429680	     70.50239303	    108.96699478	    106.13048351
      4.53333330	    -23.21546067	     -1.51258813	     -2.62472064	      0.79163560	      1.20471181	      0.00469170	     40.81484269	     -6.99051921	    -12.31177316	     19.61766308	      0.34239281	    -28.01107182	      5.87166258	     -7.49999987	     43.93146500	     -9.62531199	     -0.75587229	     31.21733436	      0.54484527	    -23.27795230	     -3.40205489	     -7.49999987	    -13.84824271	     -4.64562767	      3.49619076	     32.98134668	     -4.44351172	     59.39369153	    126.73132267	    100.44612550	     47.86430614	      2.01405918	     71.43139084	    110.36344010	    101.98426876
      4.55000000	    -22.81829543	     -1.62948270	     -3.00757543	      0.80798047	      1.16572194	      0.00441318	     38.67637310	     -6.57899748	    -13.69098617	     17.35072769	      0.30282733	    -29.34579889	      5.75817547	     -7.49999987	     41.63179034	    -10.34934365	     -2.22421770	     27.49214980	      0.47982853	    -26.88455834	     -4.26154173	     -7.49999987	    -12.20840590	     -4.81462855	      3.50088286	     31.49412850	     -3.87235348	     59.05581285	    125.72917915	    101.14131892	     47.14401413	      1.67002416	     71.07932588	    110.29035725	    102.79097278
      4.56666670	    -22.82088871	     -2.19391070	     -3.21445913	      0.80978501	      1.12785675	      0.00360316	     37.76442991	     -5.94828911	    -14.17403086	     16.14034777	      0.28170221	    -29.01527350	      5.59578388	     -7.49999987	     40.49721078	    -10.93273515	     -2.80079585	     24.54510956	      0.42839298	    -27.06200815	     -4.08770048	     -7.49999987	    -10.84134328	     -4.26506521	      3.71599247	     30.56935872	     -4.15029715	     59.20095869	    126.31988404	    101.69183730	     45.91980845	      1.18139496	     71.52183831	    110.87172043	    103.41486194
      4.58333330	    -22.38506868	     -2.71602421	     -3.51534222	      0.80203618	      1.08857112	      0.00070184	     37.10885346	     -5.38747388	    -14.39864307	     15.09620400	      0.26347846	    -27.79236241	      5.16402759	     -7.49999987	     39.51187383	    -11.27959427	     -3.29360056	     21.51701738	      0.37554280	    -26.62260528	     -2.59008151	     -7.49999987	    -10.09077676	     -3.39346840	      3.86002670	     30.65335068	     -4.31533044	     58.65250181	    125.25396248	    100.55953546	     46.54895024	      0.74123904	     71.45814968	    110.40318598	    102.41266072
      4.60000000	    -22.03197162	     -2.70893020	     -3.75586506	      0.80412750	      1.04201517	      0.00126058	     36.31708767	     -5.29680138	    -14.68116030	     14.41095336	      0.25151858	    -25.72974306	      5.05567946	     -7.49999987	     38.00711934	    -11.05280207	     -3.35145791	     18.86107181	      0.32918780	    -27.02468779	     -1.84820415	     -7.49999987	     -9.63709635	     -3.08096266	      3.80151030	     30.92926604	     -4.73828004	     60.10327394	    125.38155093	    100.16902697	     48.05230625	      0.09882284	     71.77558671	    109.98731439	    102.20826373
